# Tiled2Unity generated file. Do not modify by hand.
# Wavefront file for 'OverWorld_mesh_0002.obj'

# Vertices (Count = 620)
v -24 -1 0
v -25 -1 0
v -25 0 0
v -24 0 0
v -23 -1 0
v -24 -1 0
v -24 0 0
v -23 0 0
v -22 -1 0
v -23 -1 0
v -23 0 0
v -22 0 0
v -21 -1 0
v -22 -1 0
v -22 0 0
v -21 0 0
v -20 -1 0
v -21 -1 0
v -21 0 0
v -20 0 0
v -19 -1 0
v -20 -1 0
v -20 0 0
v -19 0 0
v -18 -1 0
v -19 -1 0
v -19 0 0
v -18 0 0
v -17 -1 0
v -18 -1 0
v -18 0 0
v -17 0 0
v -16 -1 0
v -17 -1 0
v -17 0 0
v -16 0 0
v -15 -1 0
v -16 -1 0
v -16 0 0
v -15 0 0
v -12 -1 0
v -13 -1 0
v -13 0 0
v -12 0 0
v -11 -1 0
v -12 -1 0
v -12 0 0
v -11 0 0
v -10 -1 0
v -11 -1 0
v -11 0 0
v -10 0 0
v -9 -1 0
v -10 -1 0
v -10 0 0
v -9 0 0
v -8 -1 0
v -9 -1 0
v -9 0 0
v -8 0 0
v -7 -1 0
v -8 -1 0
v -8 0 0
v -7 0 0
v -6 -1 0
v -7 -1 0
v -7 0 0
v -6 0 0
v -5 -1 0
v -6 -1 0
v -6 0 0
v -5 0 0
v -4 -1 0
v -5 -1 0
v -5 0 0
v -4 0 0
v -3 -1 0
v -4 -1 0
v -4 0 0
v -3 0 0
v -2 -1 0
v -3 -1 0
v -3 0 0
v -2 0 0
v -1 -1 0
v -2 -1 0
v -2 0 0
v -1 0 0
v 0 -1 0
v -1 -1 0
v -1 0 0
v 0 0 0
v -24 -2 0
v -25 -2 0
v -25 -1 0
v -24 -1 0
v -8 -2 0
v -9 -2 0
v -9 -1 0
v -8 -1 0
v -7 -2 0
v -8 -2 0
v -8 -1 0
v -7 -1 0
v -6 -2 0
v -7 -2 0
v -7 -1 0
v -6 -1 0
v -5 -2 0
v -6 -2 0
v -6 -1 0
v -5 -1 0
v -4 -2 0
v -5 -2 0
v -5 -1 0
v -4 -1 0
v -3 -2 0
v -4 -2 0
v -4 -1 0
v -3 -1 0
v -2 -2 0
v -3 -2 0
v -3 -1 0
v -2 -1 0
v 0 -2 0
v -1 -2 0
v -1 -1 0
v 0 -1 0
v -24 -3 0
v -25 -3 0
v -25 -2 0
v -24 -2 0
v -22 -3 0
v -23 -3 0
v -23 -2 0
v -22 -2 0
v -21 -3 0
v -22 -3 0
v -22 -2 0
v -21 -2 0
v -8 -3 0
v -9 -3 0
v -9 -2 0
v -8 -2 0
v -7 -3 0
v -8 -3 0
v -8 -2 0
v -7 -2 0
v -6 -3 0
v -7 -3 0
v -7 -2 0
v -6 -2 0
v -5 -3 0
v -6 -3 0
v -6 -2 0
v -5 -2 0
v -4 -3 0
v -5 -3 0
v -5 -2 0
v -4 -2 0
v -3 -3 0
v -4 -3 0
v -4 -2 0
v -3 -2 0
v -2 -3 0
v -3 -3 0
v -3 -2 0
v -2 -2 0
v 0 -3 0
v -1 -3 0
v -1 -2 0
v 0 -2 0
v -24 -4 0
v -25 -4 0
v -25 -3 0
v -24 -3 0
v -22 -4 0
v -23 -4 0
v -23 -3 0
v -22 -3 0
v -21 -4 0
v -22 -4 0
v -22 -3 0
v -21 -3 0
v -10 -4 0
v -11 -4 0
v -11 -3 0
v -10 -3 0
v -9 -4 0
v -10 -4 0
v -10 -3 0
v -9 -3 0
v -6 -4 0
v -7 -4 0
v -7 -3 0
v -6 -3 0
v -5 -4 0
v -6 -4 0
v -6 -3 0
v -5 -3 0
v -4 -4 0
v -5 -4 0
v -5 -3 0
v -4 -3 0
v -3 -4 0
v -4 -4 0
v -4 -3 0
v -3 -3 0
v -2 -4 0
v -3 -4 0
v -3 -3 0
v -2 -3 0
v 0 -4 0
v -1 -4 0
v -1 -3 0
v 0 -3 0
v -24 -5 0
v -25 -5 0
v -25 -4 0
v -24 -4 0
v -10 -5 0
v -11 -5 0
v -11 -4 0
v -10 -4 0
v -9 -5 0
v -10 -5 0
v -10 -4 0
v -9 -4 0
v -6 -5 0
v -7 -5 0
v -7 -4 0
v -6 -4 0
v -5 -5 0
v -6 -5 0
v -6 -4 0
v -5 -4 0
v -4 -5 0
v -5 -5 0
v -5 -4 0
v -4 -4 0
v -3 -5 0
v -4 -5 0
v -4 -4 0
v -3 -4 0
v -2 -5 0
v -3 -5 0
v -3 -4 0
v -2 -4 0
v 0 -5 0
v -1 -5 0
v -1 -4 0
v 0 -4 0
v -24 -6 0
v -25 -6 0
v -25 -5 0
v -24 -5 0
v -10 -6 0
v -11 -6 0
v -11 -5 0
v -10 -5 0
v -9 -6 0
v -10 -6 0
v -10 -5 0
v -9 -5 0
v -6 -6 0
v -7 -6 0
v -7 -5 0
v -6 -5 0
v -5 -6 0
v -6 -6 0
v -6 -5 0
v -5 -5 0
v -4 -6 0
v -5 -6 0
v -5 -5 0
v -4 -5 0
v -3 -6 0
v -4 -6 0
v -4 -5 0
v -3 -5 0
v -2 -6 0
v -3 -6 0
v -3 -5 0
v -2 -5 0
v 0 -6 0
v -1 -6 0
v -1 -5 0
v 0 -5 0
v -24 -7 0
v -25 -7 0
v -25 -6 0
v -24 -6 0
v -19 -7 0
v -20 -7 0
v -20 -6 0
v -19 -6 0
v 0 -7 0
v -1 -7 0
v -1 -6 0
v 0 -6 0
v -24 -8 0
v -25 -8 0
v -25 -7 0
v -24 -7 0
v 0 -8 0
v -1 -8 0
v -1 -7 0
v 0 -7 0
v -24 -9 0
v -25 -9 0
v -25 -8 0
v -24 -8 0
v 0 -9 0
v -1 -9 0
v -1 -8 0
v 0 -8 0
v -24 -10 0
v -25 -10 0
v -25 -9 0
v -24 -9 0
v 0 -10 0
v -1 -10 0
v -1 -9 0
v 0 -9 0
v -24 -11 0
v -25 -11 0
v -25 -10 0
v -24 -10 0
v -11 -11 0
v -12 -11 0
v -12 -10 0
v -11 -10 0
v -10 -11 0
v -11 -11 0
v -11 -10 0
v -10 -10 0
v 0 -11 0
v -1 -11 0
v -1 -10 0
v 0 -10 0
v -24 -12 0
v -25 -12 0
v -25 -11 0
v -24 -11 0
v -11 -12 0
v -12 -12 0
v -12 -11 0
v -11 -11 0
v -10 -12 0
v -11 -12 0
v -11 -11 0
v -10 -11 0
v -2 -12 0
v -3 -12 0
v -3 -11 0
v -2 -11 0
v -1 -12 0
v -2 -12 0
v -2 -11 0
v -1 -11 0
v 0 -12 0
v -1 -12 0
v -1 -11 0
v 0 -11 0
v -24 -13 0
v -25 -13 0
v -25 -12 0
v -24 -12 0
v -2 -13 0
v -3 -13 0
v -3 -12 0
v -2 -12 0
v -1 -13 0
v -2 -13 0
v -2 -12 0
v -1 -12 0
v 0 -13 0
v -1 -13 0
v -1 -12 0
v 0 -12 0
v -24 -14 0
v -25 -14 0
v -25 -13 0
v -24 -13 0
v -23 -14 0
v -24 -14 0
v -24 -13 0
v -23 -13 0
v -22 -14 0
v -23 -14 0
v -23 -13 0
v -22 -13 0
v 0 -14 0
v -1 -14 0
v -1 -13 0
v 0 -13 0
v -24 -15 0
v -25 -15 0
v -25 -14 0
v -24 -14 0
v -23 -15 0
v -24 -15 0
v -24 -14 0
v -23 -14 0
v -22 -15 0
v -23 -15 0
v -23 -14 0
v -22 -14 0
v -24 -16 0
v -25 -16 0
v -25 -15 0
v -24 -15 0
v -14 -17 0
v -15 -17 0
v -15 -16 0
v -14 -16 0
v -13 -17 0
v -14 -17 0
v -14 -16 0
v -13 -16 0
v 0 -17 0
v -1 -17 0
v -1 -16 0
v 0 -16 0
v -14 -18 0
v -15 -18 0
v -15 -17 0
v -14 -17 0
v -13 -18 0
v -14 -18 0
v -14 -17 0
v -13 -17 0
v 0 -18 0
v -1 -18 0
v -1 -17 0
v 0 -17 0
v -24 -19 0
v -25 -19 0
v -25 -18 0
v -24 -18 0
v -23 -19 0
v -24 -19 0
v -24 -18 0
v -23 -18 0
v -22 -19 0
v -23 -19 0
v -23 -18 0
v -22 -18 0
v 0 -19 0
v -1 -19 0
v -1 -18 0
v 0 -18 0
v -24 -20 0
v -25 -20 0
v -25 -19 0
v -24 -19 0
v -23 -20 0
v -24 -20 0
v -24 -19 0
v -23 -19 0
v -22 -20 0
v -23 -20 0
v -23 -19 0
v -22 -19 0
v -7 -20 0
v -8 -20 0
v -8 -19 0
v -7 -19 0
v 0 -20 0
v -1 -20 0
v -1 -19 0
v 0 -19 0
v -24 -21 0
v -25 -21 0
v -25 -20 0
v -24 -20 0
v -13 -21 0
v -14 -21 0
v -14 -20 0
v -13 -20 0
v -12 -21 0
v -13 -21 0
v -13 -20 0
v -12 -20 0
v 0 -21 0
v -1 -21 0
v -1 -20 0
v 0 -20 0
v -24 -22 0
v -25 -22 0
v -25 -21 0
v -24 -21 0
v -13 -22 0
v -14 -22 0
v -14 -21 0
v -13 -21 0
v -12 -22 0
v -13 -22 0
v -13 -21 0
v -12 -21 0
v 0 -22 0
v -1 -22 0
v -1 -21 0
v 0 -21 0
v -24 -23 0
v -25 -23 0
v -25 -22 0
v -24 -22 0
v 0 -23 0
v -1 -23 0
v -1 -22 0
v 0 -22 0
v -24 -24 0
v -25 -24 0
v -25 -23 0
v -24 -23 0
v 0 -24 0
v -1 -24 0
v -1 -23 0
v 0 -23 0
v -24 -25 0
v -25 -25 0
v -25 -24 0
v -24 -24 0
v -23 -25 0
v -24 -25 0
v -24 -24 0
v -23 -24 0
v -22 -25 0
v -23 -25 0
v -23 -24 0
v -22 -24 0
v -21 -25 0
v -22 -25 0
v -22 -24 0
v -21 -24 0
v -20 -25 0
v -21 -25 0
v -21 -24 0
v -20 -24 0
v -19 -25 0
v -20 -25 0
v -20 -24 0
v -19 -24 0
v -18 -25 0
v -19 -25 0
v -19 -24 0
v -18 -24 0
v -17 -25 0
v -18 -25 0
v -18 -24 0
v -17 -24 0
v -16 -25 0
v -17 -25 0
v -17 -24 0
v -16 -24 0
v -15 -25 0
v -16 -25 0
v -16 -24 0
v -15 -24 0
v -14 -25 0
v -15 -25 0
v -15 -24 0
v -14 -24 0
v -13 -25 0
v -14 -25 0
v -14 -24 0
v -13 -24 0
v -12 -25 0
v -13 -25 0
v -13 -24 0
v -12 -24 0
v -11 -25 0
v -12 -25 0
v -12 -24 0
v -11 -24 0
v -10 -25 0
v -11 -25 0
v -11 -24 0
v -10 -24 0
v -9 -25 0
v -10 -25 0
v -10 -24 0
v -9 -24 0
v -8 -25 0
v -9 -25 0
v -9 -24 0
v -8 -24 0
v -7 -25 0
v -8 -25 0
v -8 -24 0
v -7 -24 0
v -6 -25 0
v -7 -25 0
v -7 -24 0
v -6 -24 0
v -5 -25 0
v -6 -25 0
v -6 -24 0
v -5 -24 0
v -4 -25 0
v -5 -25 0
v -5 -24 0
v -4 -24 0
v -3 -25 0
v -4 -25 0
v -4 -24 0
v -3 -24 0
v -2 -25 0
v -3 -25 0
v -3 -24 0
v -2 -24 0
v -1 -25 0
v -2 -25 0
v -2 -24 0
v -1 -24 0
v 0 -25 0
v -1 -25 0
v -1 -24 0
v 0 -24 0

# Texture cooridinates (Count = 101)
vt 0.175 0.5
vt 0.2 0.5
vt 0.2 0.5277778
vt 0.175 0.5277778
vt 0.125 0.4444444
vt 0.15 0.4444444
vt 0.15 0.4722222
vt 0.125 0.4722222
vt 0.125 0.5
vt 0.15 0.5
vt 0.15 0.5277778
vt 0.125 0.5277778
vt 0.2 0.5555556
vt 0.175 0.5555556
vt 0.175 0.4722222
vt 0.8 0.8888889
vt 0.825 0.8888889
vt 0.825 0.9166667
vt 0.8 0.9166667
vt 0.775 0.8888889
vt 0.775 0.9166667
vt 0.25 0.9722222
vt 0.275 0.9722222
vt 0.275 1
vt 0.25 1
vt 0.225 0.9722222
vt 0.225 1
vt 0.2 0.9722222
vt 0.2 1
vt 0.175 0.9722222
vt 0.175 1
vt 0.15 0.9722222
vt 0.15 1
vt 0.2 0.4722222
vt 0.8 0.8611111
vt 0.825 0.8611111
vt 0.775 0.8611111
vt 0.25 0.9444444
vt 0.275 0.9444444
vt 0.225 0.9444444
vt 0.2 0.9444444
vt 0.175 0.9444444
vt 0.15 0.9444444
vt 0.35 0.8333333
vt 0.375 0.8333333
vt 0.375 0.8611111
vt 0.35 0.8611111
vt 0.325 0.8333333
vt 0.325 0.8611111
vt 0.25 0.9166667
vt 0.275 0.9166667
vt 0.225 0.9166667
vt 0.2 0.9166667
vt 0.175 0.9166667
vt 0.15 0.9166667
vt 0.35 0.8055556
vt 0.375 0.8055556
vt 0.325 0.8055556
vt 0.25 0.8888889
vt 0.275 0.8888889
vt 0.225 0.8888889
vt 0.2 0.8888889
vt 0.175 0.8888889
vt 0.15 0.8888889
vt 0.35 0.7777778
vt 0.375 0.7777778
vt 0.325 0.7777778
vt 0.25 0.8611111
vt 0.275 0.8611111
vt 0.225 0.8611111
vt 0.2 0.8611111
vt 0.175 0.8611111
vt 0.15 0.8611111
vt 0.2 0.8333333
vt 0.225 0.8333333
vt 0.25 0.6666666
vt 0.275 0.6666666
vt 0.275 0.6944444
vt 0.25 0.6944444
vt 0.225 0.6666666
vt 0.225 0.6944444
vt 0.25 0.6388889
vt 0.275 0.6388889
vt 0.225 0.6388889
vt 0.55 0.4166667
vt 0.575 0.4166667
vt 0.575 0.4444444
vt 0.55 0.4444444
vt 0.525 0.4166667
vt 0.525 0.4444444
vt 0.55 0.3888889
vt 0.575 0.3888889
vt 0.525 0.3888889
vt 0.125 0.9444444
vt 0.125 0.9722222
vt 0.1 0.9444444
vt 0.1 0.9722222
vt 0.125 0.9166667
vt 0.1 0.9166667
vt 0.15 0.5555556
vt 0.125 0.5555556

# Normal
vn 0 0 -1

# Mesh description
g OverWorld_mesh_0002

# Faces
f 1/1/1 2/2/1 3/3/1 4/4/1
f 5/5/1 6/6/1 7/7/1 8/8/1
f 9/5/1 10/6/1 11/7/1 12/8/1
f 13/5/1 14/6/1 15/7/1 16/8/1
f 17/5/1 18/6/1 19/7/1 20/8/1
f 21/5/1 22/6/1 23/7/1 24/8/1
f 25/5/1 26/6/1 27/7/1 28/8/1
f 29/5/1 30/6/1 31/7/1 32/8/1
f 33/5/1 34/6/1 35/7/1 36/8/1
f 37/9/1 38/10/1 39/11/1 40/12/1
f 41/10/1 42/1/1 43/4/1 44/11/1
f 45/5/1 46/6/1 47/7/1 48/8/1
f 49/5/1 50/6/1 51/7/1 52/8/1
f 53/5/1 54/6/1 55/7/1 56/8/1
f 57/5/1 58/6/1 59/7/1 60/8/1
f 61/5/1 62/6/1 63/7/1 64/8/1
f 65/5/1 66/6/1 67/7/1 68/8/1
f 69/5/1 70/6/1 71/7/1 72/8/1
f 73/5/1 74/6/1 75/7/1 76/8/1
f 77/5/1 78/6/1 79/7/1 80/8/1
f 81/5/1 82/6/1 83/7/1 84/8/1
f 85/5/1 86/6/1 87/7/1 88/8/1
f 89/4/1 90/3/1 91/13/1 92/14/1
f 93/7/1 94/15/1 95/1/1 96/10/1
f 97/16/1 98/17/1 99/18/1 100/19/1
f 101/20/1 102/16/1 103/19/1 104/21/1
f 105/22/1 106/23/1 107/24/1 108/25/1
f 109/26/1 110/22/1 111/25/1 112/27/1
f 113/28/1 114/26/1 115/27/1 116/29/1
f 117/30/1 118/28/1 119/29/1 120/31/1
f 121/32/1 122/30/1 123/31/1 124/33/1
f 125/15/1 126/34/1 127/2/1 128/1/1
f 129/7/1 130/15/1 131/1/1 132/10/1
f 133/16/1 134/17/1 135/18/1 136/19/1
f 137/20/1 138/16/1 139/19/1 140/21/1
f 141/35/1 142/36/1 143/17/1 144/16/1
f 145/37/1 146/35/1 147/16/1 148/20/1
f 149/38/1 150/39/1 151/23/1 152/22/1
f 153/40/1 154/38/1 155/22/1 156/26/1
f 157/41/1 158/40/1 159/26/1 160/28/1
f 161/42/1 162/41/1 163/28/1 164/30/1
f 165/43/1 166/42/1 167/30/1 168/32/1
f 169/15/1 170/34/1 171/2/1 172/1/1
f 173/7/1 174/15/1 175/1/1 176/10/1
f 177/35/1 178/36/1 179/17/1 180/16/1
f 181/37/1 182/35/1 183/16/1 184/20/1
f 185/44/1 186/45/1 187/46/1 188/47/1
f 189/48/1 190/44/1 191/47/1 192/49/1
f 193/50/1 194/51/1 195/39/1 196/38/1
f 197/52/1 198/50/1 199/38/1 200/40/1
f 201/53/1 202/52/1 203/40/1 204/41/1
f 205/54/1 206/53/1 207/41/1 208/42/1
f 209/55/1 210/54/1 211/42/1 212/43/1
f 213/15/1 214/34/1 215/2/1 216/1/1
f 217/7/1 218/15/1 219/1/1 220/10/1
f 221/56/1 222/57/1 223/45/1 224/44/1
f 225/58/1 226/56/1 227/44/1 228/48/1
f 229/59/1 230/60/1 231/51/1 232/50/1
f 233/61/1 234/59/1 235/50/1 236/52/1
f 237/62/1 238/61/1 239/52/1 240/53/1
f 241/63/1 242/62/1 243/53/1 244/54/1
f 245/64/1 246/63/1 247/54/1 248/55/1
f 249/15/1 250/34/1 251/2/1 252/1/1
f 253/7/1 254/15/1 255/1/1 256/10/1
f 257/65/1 258/66/1 259/57/1 260/56/1
f 261/67/1 262/65/1 263/56/1 264/58/1
f 265/68/1 266/69/1 267/60/1 268/59/1
f 269/70/1 270/68/1 271/59/1 272/61/1
f 273/71/1 274/70/1 275/61/1 276/62/1
f 277/72/1 278/71/1 279/62/1 280/63/1
f 281/73/1 282/72/1 283/63/1 284/64/1
f 285/15/1 286/34/1 287/2/1 288/1/1
f 289/7/1 290/15/1 291/1/1 292/10/1
f 293/74/1 294/75/1 295/70/1 296/71/1
f 297/15/1 298/34/1 299/2/1 300/1/1
f 301/7/1 302/15/1 303/1/1 304/10/1
f 305/15/1 306/34/1 307/2/1 308/1/1
f 309/7/1 310/15/1 311/1/1 312/10/1
f 313/15/1 314/34/1 315/2/1 316/1/1
f 317/7/1 318/15/1 319/1/1 320/10/1
f 321/15/1 322/34/1 323/2/1 324/1/1
f 325/7/1 326/15/1 327/1/1 328/10/1
f 329/76/1 330/77/1 331/78/1 332/79/1
f 333/80/1 334/76/1 335/79/1 336/81/1
f 337/15/1 338/34/1 339/2/1 340/1/1
f 341/7/1 342/15/1 343/1/1 344/10/1
f 345/82/1 346/83/1 347/77/1 348/76/1
f 349/84/1 350/82/1 351/76/1 352/80/1
f 353/85/1 354/86/1 355/87/1 356/88/1
f 357/89/1 358/85/1 359/88/1 360/90/1
f 361/15/1 362/34/1 363/2/1 364/1/1
f 365/7/1 366/15/1 367/1/1 368/10/1
f 369/91/1 370/92/1 371/86/1 372/85/1
f 373/93/1 374/91/1 375/85/1 376/89/1
f 377/15/1 378/34/1 379/2/1 380/1/1
f 381/7/1 382/15/1 383/1/1 384/10/1
f 385/94/1 386/43/1 387/32/1 388/95/1
f 389/96/1 390/94/1 391/95/1 392/97/1
f 393/10/1 394/1/1 395/4/1 396/11/1
f 397/7/1 398/15/1 399/1/1 400/10/1
f 401/98/1 402/55/1 403/43/1 404/94/1
f 405/99/1 406/98/1 407/94/1 408/96/1
f 409/9/1 410/10/1 411/11/1 412/12/1
f 413/76/1 414/77/1 415/78/1 416/79/1
f 417/80/1 418/76/1 419/79/1 420/81/1
f 421/11/1 422/4/1 423/14/1 424/100/1
f 425/82/1 426/83/1 427/77/1 428/76/1
f 429/84/1 430/82/1 431/76/1 432/80/1
f 433/15/1 434/34/1 435/2/1 436/1/1
f 437/12/1 438/11/1 439/100/1 440/101/1
f 441/94/1 442/43/1 443/32/1 444/95/1
f 445/96/1 446/94/1 447/95/1 448/97/1
f 449/15/1 450/34/1 451/2/1 452/1/1
f 453/7/1 454/15/1 455/1/1 456/10/1
f 457/98/1 458/55/1 459/43/1 460/94/1
f 461/99/1 462/98/1 463/94/1 464/96/1
f 465/74/1 466/75/1 467/70/1 468/71/1
f 469/15/1 470/34/1 471/2/1 472/1/1
f 473/7/1 474/15/1 475/1/1 476/10/1
f 477/16/1 478/17/1 479/18/1 480/19/1
f 481/20/1 482/16/1 483/19/1 484/21/1
f 485/15/1 486/34/1 487/2/1 488/1/1
f 489/7/1 490/15/1 491/1/1 492/10/1
f 493/35/1 494/36/1 495/17/1 496/16/1
f 497/37/1 498/35/1 499/16/1 500/20/1
f 501/15/1 502/34/1 503/2/1 504/1/1
f 505/7/1 506/15/1 507/1/1 508/10/1
f 509/15/1 510/34/1 511/2/1 512/1/1
f 513/7/1 514/15/1 515/1/1 516/10/1
f 517/15/1 518/34/1 519/2/1 520/1/1
f 521/4/1 522/3/1 523/13/1 524/14/1
f 525/8/1 526/7/1 527/10/1 528/9/1
f 529/8/1 530/7/1 531/10/1 532/9/1
f 533/8/1 534/7/1 535/10/1 536/9/1
f 537/8/1 538/7/1 539/10/1 540/9/1
f 541/8/1 542/7/1 543/10/1 544/9/1
f 545/8/1 546/7/1 547/10/1 548/9/1
f 549/8/1 550/7/1 551/10/1 552/9/1
f 553/8/1 554/7/1 555/10/1 556/9/1
f 557/8/1 558/7/1 559/10/1 560/9/1
f 561/8/1 562/7/1 563/10/1 564/9/1
f 565/8/1 566/7/1 567/10/1 568/9/1
f 569/8/1 570/7/1 571/10/1 572/9/1
f 573/8/1 574/7/1 575/10/1 576/9/1
f 577/8/1 578/7/1 579/10/1 580/9/1
f 581/8/1 582/7/1 583/10/1 584/9/1
f 585/8/1 586/7/1 587/10/1 588/9/1
f 589/8/1 590/7/1 591/10/1 592/9/1
f 593/8/1 594/7/1 595/10/1 596/9/1
f 597/8/1 598/7/1 599/10/1 600/9/1
f 601/8/1 602/7/1 603/10/1 604/9/1
f 605/8/1 606/7/1 607/10/1 608/9/1
f 609/8/1 610/7/1 611/10/1 612/9/1
f 613/8/1 614/7/1 615/10/1 616/9/1
f 617/1/1 618/2/1 619/3/1 620/4/1

